#define 1430400649161_width 64
#define 1430400649161_height 55
static char 1430400649161_bits[] = {
  0x00, 0x40, 0x20, 0x44, 0x08, 0x20, 0x04, 0x00, 0x00, 0x00, 0x00, 0x00, 
  0x00, 0x00, 0x00, 0x00, 0x00, 0xE0, 0xFF, 0xFF, 0xFF, 0xFF, 0x07, 0x00, 
  0x00, 0xE0, 0xFF, 0xFF, 0xFF, 0xFF, 0x07, 0x00, 0x00, 0xE0, 0xFD, 0x8F, 
  0xFF, 0x6F, 0x17, 0x00, 0x00, 0x68, 0x80, 0x17, 0xFF, 0x03, 0x06, 0x00, 
  0x00, 0x20, 0x80, 0x01, 0x7C, 0x03, 0x04, 0x00, 0x00, 0x60, 0x80, 0x81, 
  0x38, 0x03, 0x06, 0x00, 0x00, 0x60, 0xC0, 0x00, 0x19, 0x03, 0x06, 0x00, 
  0x00, 0x60, 0x8C, 0x04, 0x78, 0x72, 0x04, 0x00, 0x00, 0x60, 0xC0, 0xF1, 
  0x70, 0x03, 0x0E, 0x00, 0x00, 0xE0, 0xFF, 0xF8, 0x03, 0xFF, 0x07, 0x00, 
  0x00, 0xE8, 0xFF, 0xFF, 0xFF, 0xFF, 0x07, 0x00, 0x00, 0x60, 0xBE, 0xEB, 
  0xAB, 0xBB, 0x05, 0x00, 0x00, 0x00, 0x00, 0x00, 0x00, 0x00, 0x00, 0x00, 
  0x00, 0x00, 0x00, 0x80, 0x01, 0x00, 0x00, 0x00, 0x00, 0x00, 0x00, 0xC0, 
  0x07, 0x00, 0x00, 0x00, 0x00, 0x00, 0x00, 0xE0, 0x0F, 0x00, 0x00, 0x00, 
  0x00, 0x20, 0x00, 0x70, 0x1E, 0x00, 0x00, 0x00, 0x00, 0x00, 0x00, 0x38, 
  0x18, 0x00, 0x00, 0x00, 0x00, 0x00, 0x00, 0x1C, 0x78, 0x00, 0x00, 0x00, 
  0x00, 0x00, 0x00, 0x1F, 0xF0, 0x00, 0x00, 0x00, 0x00, 0x08, 0x00, 0x1F, 
  0xF8, 0x01, 0x00, 0x00, 0x00, 0x00, 0xC0, 0x3F, 0xFC, 0x03, 0x10, 0x00, 
  0x00, 0x00, 0xE0, 0xFF, 0xFF, 0x07, 0x04, 0x00, 0x00, 0x00, 0xF0, 0xFF, 
  0xFF, 0x0F, 0x00, 0x00, 0x00, 0x10, 0x18, 0xFE, 0x7F, 0x18, 0x00, 0x00, 
  0x00, 0x00, 0x0C, 0x7C, 0x3E, 0x30, 0x00, 0x00, 0x00, 0x00, 0x0E, 0x7C, 
  0x3C, 0x70, 0x00, 0x00, 0x00, 0x00, 0x0F, 0x3C, 0x38, 0xF0, 0x04, 0x00, 
  0x00, 0x80, 0x1F, 0x1C, 0x30, 0xF8, 0x01, 0x00, 0x00, 0x00, 0x1F, 0x0E, 
  0x60, 0xFC, 0x00, 0x00, 0x00, 0x00, 0xFF, 0x07, 0xC0, 0x7F, 0x00, 0x00, 
  0x00, 0x00, 0xFE, 0x01, 0x80, 0x7F, 0x01, 0x00, 0x00, 0x00, 0xFC, 0x01, 
  0x00, 0x3F, 0x00, 0x00, 0x00, 0x00, 0xF8, 0x00, 0x00, 0x5E, 0x00, 0x00, 
  0x00, 0x00, 0x70, 0x00, 0x00, 0x0C, 0x00, 0x00, 0x00, 0x00, 0x34, 0x00, 
  0x00, 0x04, 0x00, 0x00, 0x00, 0x00, 0x00, 0x00, 0x00, 0x00, 0x00, 0x00, 
  0x00, 0x00, 0x00, 0x00, 0x00, 0x04, 0x00, 0x00, 0x00, 0x00, 0x00, 0x00, 
  0x00, 0x02, 0x00, 0x40, 0x2A, 0x08, 0x80, 0x00, 0x20, 0x80, 0x20, 0x10, 
  0x00, 0xA0, 0x00, 0x01, 0x00, 0x00, 0x8A, 0x48, 0x30, 0x15, 0x00, 0x00, 
  0x00, 0x80, 0x20, 0x02, 0x40, 0xAA, 0x00, 0x10, 0x00, 0x00, 0x85, 0x00, 
  0x08, 0xE0, 0x01, 0x00, 0x01, 0x80, 0x23, 0x10, 0x00, 0x11, 0x00, 0x00, 
  0x00, 0x00, 0xC6, 0x02, 0x40, 0xC2, 0x01, 0x00, 0x00, 0x40, 0x00, 0x00, 
  0x00, 0x30, 0x20, 0x00, 0x00, 0x00, 0x00, 0x00, 0x00, 0x00, 0x01, 0x02, 
  0x20, 0x40, 0x00, 0x00, 0x00, 0x10, 0x56, 0x00, 0x00, 0x45, 0x08, 0x00, 
  0x00, 0x00, 0x00, 0x50, 0x52, 0x0A, 0x00, 0x00, 0x00, 0x00, 0x80, 0x50, 
  0x1C, 0x00, 0x00, 0x00, 0x00, 0x00, 0x00, 0x00, 0x00, 0x01, 0x00, 0x00, 
  0x00, 0x00, 0x00, 0x81, 0x00, 0x00, 0x00, 0x00, };
